<svg data-name="Layer 2" xmlns="http://www.w3.org/2000/svg" viewBox="0 0 479.1 702.5"><path d="M267.7 0c25 0 58.1 55.2 70.7 73 4.7 6.5 14.6 12 20.3 18l17 23.6 15.9 12.6c11.4 9 24.6 23 32.3 35.6a118.7 118.7 0 0 1 15.9 40l.5 19.3 8.3 20.2c4.8 14.2 7 31.7 9.3 46.1 6.6 40.4-6.4 73.8-11 103l2.2 1.7c7.4-.5 9.6-5 17-6 14.5 8.5 15 27.6 10.4 47.7-7 30.4-13.3 65.6-36.7 80-4-.7-8-3.6-11.5-2.7-4.8 2.7-13.3 32.3-15.9 39.5-10.1 28-34.9 66.3-56.4 83.3a670.4 670.4 0 0 1-81.1 54.8c-20.8 12-52.8 18-79 7.2-18-7.4-31.8-22-46.5-33-35.7-26.6-70.8-59.6-88.2-104l-14.8-46.7c-3-10.6-3.2-22.8-8.2-31.2-5.5.1-11.9 2.3-16 0C6.8 473-1.7 415.2.4 391.5c1.7-17.6.8-38.3 19.2-38.4 5.3 2.7 8 6.5 13.7 8.8l3.3-3.3-3.3-25.8c-1.4-7.8.4-18.5 1.1-24.7 3-27.3 7.1-55.3 15.4-78.4l10.4-23 11.5-15.3 4.4-20.9 12-20.3c29.6-39.4 91.8-52.9 132-81.7 12.8-9 30-23.6 37.9-37.2 5.2-9.2 4-23 9.8-31.3Z" style="fill:#231f20" data-name="Layer 1"/></svg>